<mxfile host="app.diagrams.net" modified="2024-04-07T23:57:28.487Z" agent="Mozilla/5.0 (Windows NT 10.0; Win64; x64) AppleWebKit/537.36 (KHTML, like Gecko) Chrome/123.0.0.0 Safari/537.36" etag="IloqQAsko1iALYlPwVqw" version="24.2.2" type="google">
  <diagram name="Página-1" id="EbACHLd0_YhSefb9W6eA">
    <mxGraphModel grid="1" page="1" gridSize="10" guides="1" tooltips="1" connect="1" arrows="1" fold="1" pageScale="1" pageWidth="827" pageHeight="1169" math="0" shadow="0">
      <root>
        <mxCell id="0" />
        <mxCell id="1" parent="0" />
        <mxCell id="9Q4_KcZ_jKh_-f_aUDPD-2" value="Logueado" style="swimlane;fontStyle=1;align=center;verticalAlign=top;childLayout=stackLayout;horizontal=1;startSize=26;horizontalStack=0;resizeParent=1;resizeParentMax=0;resizeLast=0;collapsible=1;marginBottom=0;whiteSpace=wrap;html=1;" vertex="1" parent="1">
          <mxGeometry x="175" y="220" width="160" height="86" as="geometry" />
        </mxCell>
        <mxCell id="9Q4_KcZ_jKh_-f_aUDPD-3" value="Administrador" style="text;strokeColor=none;fillColor=none;align=center;verticalAlign=top;spacingLeft=4;spacingRight=4;overflow=hidden;rotatable=0;points=[[0,0.5],[1,0.5]];portConstraint=eastwest;whiteSpace=wrap;html=1;" vertex="1" parent="9Q4_KcZ_jKh_-f_aUDPD-2">
          <mxGeometry y="26" width="160" height="26" as="geometry" />
        </mxCell>
        <mxCell id="9Q4_KcZ_jKh_-f_aUDPD-4" value="" style="line;strokeWidth=1;fillColor=none;align=left;verticalAlign=middle;spacingTop=-1;spacingLeft=3;spacingRight=3;rotatable=0;labelPosition=right;points=[];portConstraint=eastwest;strokeColor=inherit;" vertex="1" parent="9Q4_KcZ_jKh_-f_aUDPD-2">
          <mxGeometry y="52" width="160" height="8" as="geometry" />
        </mxCell>
        <mxCell id="9Q4_KcZ_jKh_-f_aUDPD-5" value="mostrar usuarios" style="text;strokeColor=none;fillColor=none;align=center;verticalAlign=top;spacingLeft=4;spacingRight=4;overflow=hidden;rotatable=0;points=[[0,0.5],[1,0.5]];portConstraint=eastwest;whiteSpace=wrap;html=1;" vertex="1" parent="9Q4_KcZ_jKh_-f_aUDPD-2">
          <mxGeometry y="60" width="160" height="26" as="geometry" />
        </mxCell>
        <mxCell id="9Q4_KcZ_jKh_-f_aUDPD-6" value="" style="edgeStyle=orthogonalEdgeStyle;html=1;verticalAlign=bottom;endArrow=open;endSize=8;strokeColor=#ff0000;rounded=0;entryX=0.5;entryY=0;entryDx=0;entryDy=0;" edge="1" parent="1" target="9Q4_KcZ_jKh_-f_aUDPD-7">
          <mxGeometry relative="1" as="geometry">
            <mxPoint x="254.5" y="366" as="targetPoint" />
            <mxPoint x="254.5" y="306" as="sourcePoint" />
          </mxGeometry>
        </mxCell>
        <mxCell id="9Q4_KcZ_jKh_-f_aUDPD-7" value="Viendo usuarios" style="swimlane;fontStyle=1;align=center;verticalAlign=top;childLayout=stackLayout;horizontal=1;startSize=26;horizontalStack=0;resizeParent=1;resizeParentMax=0;resizeLast=0;collapsible=1;marginBottom=0;whiteSpace=wrap;html=1;" vertex="1" parent="1">
          <mxGeometry x="175" y="370" width="160" height="86" as="geometry" />
        </mxCell>
        <mxCell id="9Q4_KcZ_jKh_-f_aUDPD-8" value="Administrador" style="text;strokeColor=none;fillColor=none;align=center;verticalAlign=top;spacingLeft=4;spacingRight=4;overflow=hidden;rotatable=0;points=[[0,0.5],[1,0.5]];portConstraint=eastwest;whiteSpace=wrap;html=1;" vertex="1" parent="9Q4_KcZ_jKh_-f_aUDPD-7">
          <mxGeometry y="26" width="160" height="26" as="geometry" />
        </mxCell>
        <mxCell id="9Q4_KcZ_jKh_-f_aUDPD-9" value="" style="line;strokeWidth=1;fillColor=none;align=left;verticalAlign=middle;spacingTop=-1;spacingLeft=3;spacingRight=3;rotatable=0;labelPosition=right;points=[];portConstraint=eastwest;strokeColor=inherit;" vertex="1" parent="9Q4_KcZ_jKh_-f_aUDPD-7">
          <mxGeometry y="52" width="160" height="8" as="geometry" />
        </mxCell>
        <mxCell id="9Q4_KcZ_jKh_-f_aUDPD-10" value="ver datos de un usuario" style="text;strokeColor=none;fillColor=none;align=center;verticalAlign=top;spacingLeft=4;spacingRight=4;overflow=hidden;rotatable=0;points=[[0,0.5],[1,0.5]];portConstraint=eastwest;whiteSpace=wrap;html=1;" vertex="1" parent="9Q4_KcZ_jKh_-f_aUDPD-7">
          <mxGeometry y="60" width="160" height="26" as="geometry" />
        </mxCell>
        <mxCell id="9Q4_KcZ_jKh_-f_aUDPD-11" value="" style="edgeStyle=orthogonalEdgeStyle;html=1;verticalAlign=bottom;endArrow=open;endSize=8;strokeColor=#ff0000;rounded=0;entryX=0.5;entryY=0;entryDx=0;entryDy=0;exitX=0.5;exitY=1.077;exitDx=0;exitDy=0;exitPerimeter=0;" edge="1" parent="1" source="9Q4_KcZ_jKh_-f_aUDPD-10" target="9Q4_KcZ_jKh_-f_aUDPD-12">
          <mxGeometry relative="1" as="geometry">
            <mxPoint x="254.5" y="516" as="targetPoint" />
            <mxPoint x="254.5" y="456" as="sourcePoint" />
            <Array as="points">
              <mxPoint x="255" y="480" />
              <mxPoint x="255" y="480" />
            </Array>
          </mxGeometry>
        </mxCell>
        <mxCell id="9Q4_KcZ_jKh_-f_aUDPD-12" value="Viendo datos usuario" style="swimlane;fontStyle=1;align=center;verticalAlign=top;childLayout=stackLayout;horizontal=1;startSize=26;horizontalStack=0;resizeParent=1;resizeParentMax=0;resizeLast=0;collapsible=1;marginBottom=0;whiteSpace=wrap;html=1;" vertex="1" parent="1">
          <mxGeometry x="175" y="520" width="160" height="60" as="geometry" />
        </mxCell>
        <mxCell id="9Q4_KcZ_jKh_-f_aUDPD-13" value="Administrador" style="text;strokeColor=none;fillColor=none;align=center;verticalAlign=top;spacingLeft=4;spacingRight=4;overflow=hidden;rotatable=0;points=[[0,0.5],[1,0.5]];portConstraint=eastwest;whiteSpace=wrap;html=1;" vertex="1" parent="9Q4_KcZ_jKh_-f_aUDPD-12">
          <mxGeometry y="26" width="160" height="26" as="geometry" />
        </mxCell>
        <mxCell id="9Q4_KcZ_jKh_-f_aUDPD-14" value="" style="line;strokeWidth=1;fillColor=none;align=left;verticalAlign=middle;spacingTop=-1;spacingLeft=3;spacingRight=3;rotatable=0;labelPosition=right;points=[];portConstraint=eastwest;strokeColor=inherit;" vertex="1" parent="9Q4_KcZ_jKh_-f_aUDPD-12">
          <mxGeometry y="52" width="160" height="8" as="geometry" />
        </mxCell>
        <mxCell id="9Q4_KcZ_jKh_-f_aUDPD-21" value="" style="ellipse;html=1;shape=endState;fillColor=#000000;strokeColor=#ff0000;" vertex="1" parent="1">
          <mxGeometry x="240" y="620" width="30" height="30" as="geometry" />
        </mxCell>
        <mxCell id="9Q4_KcZ_jKh_-f_aUDPD-22" value="" style="edgeStyle=orthogonalEdgeStyle;html=1;verticalAlign=bottom;endArrow=open;endSize=8;strokeColor=#ff0000;rounded=0;exitX=0.5;exitY=1.077;exitDx=0;exitDy=0;exitPerimeter=0;entryX=0.5;entryY=0;entryDx=0;entryDy=0;" edge="1" parent="1" target="9Q4_KcZ_jKh_-f_aUDPD-21">
          <mxGeometry relative="1" as="geometry">
            <mxPoint x="255" y="624" as="targetPoint" />
            <mxPoint x="254.5" y="580" as="sourcePoint" />
            <Array as="points" />
          </mxGeometry>
        </mxCell>
        <mxCell id="9Q4_KcZ_jKh_-f_aUDPD-24" value="Idle" style="swimlane;fontStyle=1;align=center;verticalAlign=top;childLayout=stackLayout;horizontal=1;startSize=26;horizontalStack=0;resizeParent=1;resizeParentMax=0;resizeLast=0;collapsible=1;marginBottom=0;whiteSpace=wrap;html=1;" vertex="1" parent="1">
          <mxGeometry x="175" y="80" width="160" height="86" as="geometry" />
        </mxCell>
        <mxCell id="9Q4_KcZ_jKh_-f_aUDPD-25" value="Administrador" style="text;strokeColor=none;fillColor=none;align=center;verticalAlign=top;spacingLeft=4;spacingRight=4;overflow=hidden;rotatable=0;points=[[0,0.5],[1,0.5]];portConstraint=eastwest;whiteSpace=wrap;html=1;" vertex="1" parent="9Q4_KcZ_jKh_-f_aUDPD-24">
          <mxGeometry y="26" width="160" height="26" as="geometry" />
        </mxCell>
        <mxCell id="9Q4_KcZ_jKh_-f_aUDPD-26" value="" style="line;strokeWidth=1;fillColor=none;align=left;verticalAlign=middle;spacingTop=-1;spacingLeft=3;spacingRight=3;rotatable=0;labelPosition=right;points=[];portConstraint=eastwest;strokeColor=inherit;" vertex="1" parent="9Q4_KcZ_jKh_-f_aUDPD-24">
          <mxGeometry y="52" width="160" height="8" as="geometry" />
        </mxCell>
        <mxCell id="9Q4_KcZ_jKh_-f_aUDPD-27" value="Iniciar sesion" style="text;strokeColor=none;fillColor=none;align=center;verticalAlign=top;spacingLeft=4;spacingRight=4;overflow=hidden;rotatable=0;points=[[0,0.5],[1,0.5]];portConstraint=eastwest;whiteSpace=wrap;html=1;" vertex="1" parent="9Q4_KcZ_jKh_-f_aUDPD-24">
          <mxGeometry y="60" width="160" height="26" as="geometry" />
        </mxCell>
        <mxCell id="9Q4_KcZ_jKh_-f_aUDPD-29" value="" style="edgeStyle=orthogonalEdgeStyle;html=1;verticalAlign=bottom;endArrow=open;endSize=8;strokeColor=#ff0000;rounded=0;entryX=0.5;entryY=0;entryDx=0;entryDy=0;" edge="1" parent="1" target="9Q4_KcZ_jKh_-f_aUDPD-2">
          <mxGeometry relative="1" as="geometry">
            <mxPoint x="255" y="196" as="targetPoint" />
            <mxPoint x="255" y="170" as="sourcePoint" />
          </mxGeometry>
        </mxCell>
        <mxCell id="9Q4_KcZ_jKh_-f_aUDPD-31" value="" style="ellipse;html=1;shape=startState;fillColor=#000000;strokeColor=#ff0000;" vertex="1" parent="1">
          <mxGeometry x="240" y="10" width="30" height="30" as="geometry" />
        </mxCell>
        <mxCell id="9Q4_KcZ_jKh_-f_aUDPD-32" value="" style="edgeStyle=orthogonalEdgeStyle;html=1;verticalAlign=bottom;endArrow=open;endSize=8;strokeColor=#ff0000;rounded=0;entryX=0.5;entryY=0;entryDx=0;entryDy=0;" edge="1" parent="1" source="9Q4_KcZ_jKh_-f_aUDPD-31" target="9Q4_KcZ_jKh_-f_aUDPD-24">
          <mxGeometry relative="1" as="geometry">
            <mxPoint x="545" y="110" as="targetPoint" />
          </mxGeometry>
        </mxCell>
        <mxCell id="9Q4_KcZ_jKh_-f_aUDPD-33" value="iniciar_sesion(nombre_usuario=admin, contraseña=admin)" style="text;html=1;align=center;verticalAlign=middle;resizable=0;points=[];autosize=1;strokeColor=none;fillColor=none;" vertex="1" parent="1">
          <mxGeometry x="290" y="180" width="340" height="30" as="geometry" />
        </mxCell>
        <mxCell id="9Q4_KcZ_jKh_-f_aUDPD-34" value="mostrar_usuarios_registrados()" style="text;html=1;align=center;verticalAlign=middle;resizable=0;points=[];autosize=1;strokeColor=none;fillColor=none;" vertex="1" parent="1">
          <mxGeometry x="290" y="320" width="190" height="30" as="geometry" />
        </mxCell>
        <mxCell id="9Q4_KcZ_jKh_-f_aUDPD-35" value="mostrar_datos_usuario(nombre_usuario)" style="text;html=1;align=center;verticalAlign=middle;resizable=0;points=[];autosize=1;strokeColor=none;fillColor=none;" vertex="1" parent="1">
          <mxGeometry x="275" y="470" width="240" height="30" as="geometry" />
        </mxCell>
      </root>
    </mxGraphModel>
  </diagram>
</mxfile>
